<svg xmlns="http://www.w3.org/2000/svg" viewBox="0 0 720 334" font-family="Inter, system-ui, sans-serif"><rect width="720" height="334" fill="#fff"/><text x="20" y="26" font-size="13" fill="#1f2937" font-weight="600">The fixed part: median weighted tokens per change, by production lines changed</text><text x="20" y="44" font-size="11" fill="#6b7280">Standalone changes first dispatched and merged in September (n=120). Bar: bootstrap 95% interval of the median.</text><line x1="70" x2="520" y1="290" y2="290" stroke="#e5e7eb"/><text x="62" y="294" font-size="11" fill="#6b7280" text-anchor="end">0M</text><line x1="70" x2="520" y1="253.33333333333334" y2="253.33333333333334" stroke="#e5e7eb"/><text x="62" y="257.33333333333337" font-size="11" fill="#6b7280" text-anchor="end">5M</text><line x1="70" x2="520" y1="216.66666666666669" y2="216.66666666666669" stroke="#e5e7eb"/><text x="62" y="220.66666666666669" font-size="11" fill="#6b7280" text-anchor="end">10M</text><line x1="70" x2="520" y1="180" y2="180" stroke="#e5e7eb"/><text x="62" y="184" font-size="11" fill="#6b7280" text-anchor="end">15M</text><line x1="70" x2="520" y1="143.33333333333334" y2="143.33333333333334" stroke="#e5e7eb"/><text x="62" y="147.33333333333334" font-size="11" fill="#6b7280" text-anchor="end">20M</text><line x1="70" x2="520" y1="106.66666666666666" y2="106.66666666666666" stroke="#e5e7eb"/><text x="62" y="110.66666666666666" font-size="11" fill="#6b7280" text-anchor="end">25M</text><line x1="70" x2="520" y1="70" y2="70" stroke="#e5e7eb"/><text x="62" y="74" font-size="11" fill="#6b7280" text-anchor="end">30M</text><line x1="120" x2="120" y1="270.2" y2="245.26666666666668" stroke="#1d4ed8" stroke-width="1.5"/><rect x="115" y="251.26666666666665" width="10" height="10" fill="#1d4ed8"/><text x="130" y="260.26666666666665" font-size="10" fill="#1f2937">4.6M</text><text x="120" y="306" font-size="11" fill="#1f2937" text-anchor="middle">0 lines</text><text x="120" y="320" font-size="9.5" fill="#6b7280" text-anchor="middle">n=50 · 1 dispatch</text><line x1="236.66666666666669" x2="236.66666666666669" y1="268" y2="249.66666666666669" stroke="#1d4ed8" stroke-width="1.5"/><rect x="231.66666666666669" y="254.2" width="10" height="10" fill="#1d4ed8"/><text x="246.66666666666669" y="263.2" font-size="10" fill="#1f2937">4.2M</text><text x="236.66666666666669" y="306" font-size="11" fill="#1f2937" text-anchor="middle">1-49 lines</text><text x="236.66666666666669" y="320" font-size="9.5" fill="#6b7280" text-anchor="middle">n=24 · 10 dispatches</text><line x1="353.33333333333337" x2="353.33333333333337" y1="237.2" y2="210.8" stroke="#1d4ed8" stroke-width="1.5"/><rect x="348.33333333333337" y="211.66666666666669" width="10" height="10" fill="#1d4ed8"/><text x="363.33333333333337" y="220.66666666666669" font-size="10" fill="#1f2937">10M</text><text x="353.33333333333337" y="306" font-size="11" fill="#1f2937" text-anchor="middle">50-299 lines</text><text x="353.33333333333337" y="320" font-size="9.5" fill="#6b7280" text-anchor="middle">n=35 · 18 dispatches</text><line x1="470" x2="470" y1="224.73333333333335" y2="100.80000000000001" stroke="#1d4ed8" stroke-width="1.5"/><rect x="465" y="196.26666666666665" width="10" height="10" fill="#1d4ed8"/><text x="480" y="205.26666666666665" font-size="10" fill="#1f2937">12.1M</text><text x="470" y="306" font-size="11" fill="#1f2937" text-anchor="middle">300+ lines</text><text x="470" y="320" font-size="9.5" fill="#6b7280" text-anchor="middle">n=11 · 23 dispatches</text></svg>
