<svg xmlns="http://www.w3.org/2000/svg" viewBox="0 0 920 600" width="920" height="600" font-family="Inter, system-ui, sans-serif" role="img" aria-label="Who did the work: changes merged per week by implementer tier in each repo, and fleet working hours by session tier"><style data-figure-theme="1">@media (prefers-color-scheme: dark){rect[fill="#fff"]:not([fill-opacity]),rect[fill="#ffffff"]:not([fill-opacity]),rect[fill="white"]:not([fill-opacity]){fill:#16181d}[stroke="#fff"],[stroke="#ffffff"],[stroke="white"]{stroke:#16181d}circle[fill="#fff"]:not([fill-opacity]),circle[fill="#ffffff"]:not([fill-opacity]),circle[fill="white"]:not([fill-opacity]){fill:#16181d}path[fill="#fff"]:not([fill-opacity]),path[fill="#ffffff"]:not([fill-opacity]),path[fill="white"]:not([fill-opacity]){fill:#16181d}polygon[fill="#fff"]:not([fill-opacity]),polygon[fill="#ffffff"]:not([fill-opacity]),polygon[fill="white"]:not([fill-opacity]){fill:#16181d}ellipse[fill="#fff"]:not([fill-opacity]),ellipse[fill="#ffffff"]:not([fill-opacity]),ellipse[fill="white"]:not([fill-opacity]){fill:#16181d}text[fill="#111827"]:not([data-on-fill]),text[fill="#1f2937"]:not([data-on-fill]),text[fill="#333"]:not([data-on-fill]),text[fill="#1f2328"]:not([data-on-fill]),text[fill="#555"]:not([data-on-fill]),text[fill="#475569"]:not([data-on-fill]){fill:#e6e6e6}[stroke="#111827"],[stroke="#1f2937"],[stroke="#333"],[stroke="#1f2328"],[stroke="#555"],[stroke="#475569"]{stroke:#e6e6e6}text[fill="#6b7280"]:not([data-on-fill]),text[fill="#666"]:not([data-on-fill]),text[fill="#667085"]:not([data-on-fill]),text[fill="#888"]:not([data-on-fill]),text[fill="#6e7781"]:not([data-on-fill]),text[fill="#999"]:not([data-on-fill]),text[fill="#aaa"]:not([data-on-fill]),text[fill="#bbb"]:not([data-on-fill]),text[fill="#9ca3af"]:not([data-on-fill]),text[fill="#94a3b8"]:not([data-on-fill]){fill:#9aa0a6}[stroke="#6b7280"],[stroke="#666"],[stroke="#667085"],[stroke="#888"],[stroke="#6e7781"],[stroke="#999"],[stroke="#aaa"],[stroke="#bbb"],[stroke="#9ca3af"],[stroke="#94a3b8"]{stroke:#9aa0a6}[stroke="#e5e7eb"],[stroke="#eee"],[stroke="#d1d5db"],[stroke="#f0f0f0"],[stroke="#cbd5e1"],[stroke="#d9d9d9"]{stroke:#2c313a}[fill="#f3f4f6"],[fill="#f9fafb"]{fill:#1f222a}rect[fill="#f0f0f0"],rect[fill="#d1d5db"],rect[fill="#e5e7eb"],rect[fill="#eee"]{fill:#2c313a}text:not([fill]):not([class]):not([data-on-fill]){fill:#e6e6e6}rect[fill="#1f2937"],circle[fill="#1f2937"],path[fill="#1f2937"]{fill:#4b5563}rect[fill="#3b1f5e"],circle[fill="#3b1f5e"],path[fill="#3b1f5e"]{fill:#553185}svg .t,svg .h{fill:#e6e6e6}svg .a,svg .s{fill:#9aa0a6}svg .f{fill:#1f222a;stroke:#2c313a}svg .g{stroke:#2c313a}rect[fill="#dbeafe"]{fill:#1d2d44}rect[fill="#93c5fd"]{fill:#2a5a9a}rect[fill="#fff7ed"]{fill:#2a2118}}</style><title>Who did the work: changes merged per week by implementer tier in each repo, and fleet working hours by session tier</title><rect width="920" height="600" fill="#ffffff"/><text x="60.0" y="20.0" font-size="14" fill="#1f2937" text-anchor="start" font-weight="600">Who did the work, by tier</text><text x="60.0" y="36.0" font-size="10.5" fill="#6b7280" text-anchor="start">Commits by their Co-Authored-By trailer (a cheap-tier session or a person leaves none: grey); fleet working hours by the tier each session ran at</text><line x1="60" x2="900" y1="210" y2="210" stroke="#e5e7eb"/><text x="54.0" y="214.0" font-size="10" fill="#6b7280" text-anchor="end">0</text><line x1="60" x2="900" y1="140" y2="140" stroke="#e5e7eb"/><text x="54.0" y="144.0" font-size="10" fill="#6b7280" text-anchor="end">150</text><line x1="60" x2="900" y1="70" y2="70" stroke="#e5e7eb"/><text x="54.0" y="74.0" font-size="10" fill="#6b7280" text-anchor="end">300</text><text x="60.0" y="66.0" font-size="11" fill="#1f2937" text-anchor="start" font-weight="600">LinearViewer: commits on main a week by the tier their trailer names</text><rect x="879.5" y="173.1" width="19.5" height="36.9" fill="#2a78d6"/><rect x="879.5" y="141.4" width="19.5" height="31.7" fill="#cbd5e1"/><rect x="857.9" y="192.3" width="19.5" height="17.7" fill="#2a78d6"/><rect x="857.9" y="146.5" width="19.5" height="45.7" fill="#eb6834"/><rect x="857.9" y="111.5" width="19.5" height="35.0" fill="#cbd5e1"/><rect x="836.4" y="195.5" width="19.5" height="14.5" fill="#2a78d6"/><rect x="836.4" y="177.3" width="19.5" height="18.2" fill="#eb6834"/><rect x="836.4" y="175.5" width="19.5" height="1.9" fill="#cbd5e1"/><rect x="814.8" y="189.5" width="19.5" height="20.5" fill="#2a78d6"/><rect x="814.8" y="168.0" width="19.5" height="21.5" fill="#eb6834"/><rect x="814.8" y="151.7" width="19.5" height="16.3" fill="#cbd5e1"/><rect x="793.3" y="192.3" width="19.5" height="17.7" fill="#2a78d6"/><rect x="793.3" y="163.3" width="19.5" height="28.9" fill="#eb6834"/><rect x="793.3" y="156.3" width="19.5" height="7.0" fill="#cbd5e1"/><rect x="771.8" y="206.3" width="19.5" height="3.7" fill="#2a78d6"/><rect x="771.8" y="188.5" width="19.5" height="17.7" fill="#eb6834"/><rect x="771.8" y="175.0" width="19.5" height="13.5" fill="#cbd5e1"/><rect x="750.2" y="208.1" width="19.5" height="1.9" fill="#2a78d6"/><rect x="750.2" y="182.9" width="19.5" height="25.2" fill="#eb6834"/><rect x="750.2" y="171.3" width="19.5" height="11.7" fill="#cbd5e1"/><rect x="728.7" y="204.4" width="19.5" height="5.6" fill="#2a78d6"/><rect x="728.7" y="196.5" width="19.5" height="7.9" fill="#eb6834"/><rect x="728.7" y="188.1" width="19.5" height="8.4" fill="#cbd5e1"/><rect x="707.2" y="206.7" width="19.5" height="3.3" fill="#2a78d6"/><rect x="707.2" y="197.4" width="19.5" height="9.3" fill="#eb6834"/><rect x="707.2" y="191.8" width="19.5" height="5.6" fill="#cbd5e1"/><rect x="685.6" y="206.7" width="19.5" height="3.3" fill="#2a78d6"/><rect x="685.6" y="201.1" width="19.5" height="5.6" fill="#eb6834"/><rect x="685.6" y="193.2" width="19.5" height="7.9" fill="#cbd5e1"/><rect x="664.1" y="189.5" width="19.5" height="20.5" fill="#2a78d6"/><rect x="664.1" y="180.1" width="19.5" height="9.3" fill="#eb6834"/><rect x="664.1" y="161.9" width="19.5" height="18.2" fill="#cbd5e1"/><rect x="642.5" y="195.5" width="19.5" height="14.5" fill="#2a78d6"/><rect x="642.5" y="183.9" width="19.5" height="11.7" fill="#eb6834"/><rect x="642.5" y="171.3" width="19.5" height="12.6" fill="#cbd5e1"/><rect x="621.0" y="175.0" width="19.5" height="35.0" fill="#2a78d6"/><rect x="621.0" y="169.9" width="19.5" height="5.1" fill="#eb6834"/><rect x="621.0" y="160.1" width="19.5" height="9.8" fill="#cbd5e1"/><rect x="599.5" y="144.7" width="19.5" height="65.3" fill="#2a78d6"/><rect x="599.5" y="140.0" width="19.5" height="4.7" fill="#eb6834"/><rect x="599.5" y="136.3" width="19.5" height="3.7" fill="#cbd5e1"/><rect x="577.9" y="142.3" width="19.5" height="67.7" fill="#2a78d6"/><rect x="577.9" y="140.9" width="19.5" height="1.4" fill="#cbd5e1"/><rect x="556.4" y="182.0" width="19.5" height="28.0" fill="#2a78d6"/><rect x="556.4" y="175.9" width="19.5" height="6.1" fill="#cbd5e1"/><rect x="534.8" y="175.5" width="19.5" height="34.5" fill="#2a78d6"/><rect x="534.8" y="154.0" width="19.5" height="21.5" fill="#cbd5e1"/><rect x="513.3" y="203.9" width="19.5" height="6.1" fill="#2a78d6"/><rect x="513.3" y="171.7" width="19.5" height="32.2" fill="#cbd5e1"/><rect x="491.8" y="209.1" width="19.5" height="0.9" fill="#2a78d6"/><rect x="491.8" y="187.1" width="19.5" height="21.9" fill="#cbd5e1"/><rect x="470.2" y="209.5" width="19.5" height="0.5" fill="#2a78d6"/><rect x="470.2" y="202.5" width="19.5" height="7.0" fill="#cbd5e1"/><rect x="448.7" y="209.1" width="19.5" height="0.9" fill="#2a78d6"/><rect x="448.7" y="208.6" width="19.5" height="0.5" fill="#cbd5e1"/><rect x="384.1" y="207.7" width="19.5" height="2.3" fill="#2a78d6"/><rect x="384.1" y="197.9" width="19.5" height="9.8" fill="#cbd5e1"/><rect x="362.5" y="204.9" width="19.5" height="5.1" fill="#cbd5e1"/><rect x="341.0" y="203.5" width="19.5" height="6.5" fill="#2a78d6"/><rect x="341.0" y="182.0" width="19.5" height="21.5" fill="#cbd5e1"/><rect x="319.5" y="207.2" width="19.5" height="2.8" fill="#cbd5e1"/><rect x="297.9" y="190.9" width="19.5" height="19.1" fill="#cbd5e1"/><rect x="276.4" y="199.3" width="19.5" height="10.7" fill="#cbd5e1"/><rect x="254.8" y="206.7" width="19.5" height="3.3" fill="#2a78d6"/><rect x="254.8" y="193.2" width="19.5" height="13.5" fill="#cbd5e1"/><rect x="233.3" y="208.6" width="19.5" height="1.4" fill="#2a78d6"/><rect x="233.3" y="197.4" width="19.5" height="11.2" fill="#cbd5e1"/><rect x="211.8" y="209.1" width="19.5" height="0.9" fill="#2a78d6"/><rect x="211.8" y="206.7" width="19.5" height="2.3" fill="#cbd5e1"/><rect x="190.2" y="207.2" width="19.5" height="2.8" fill="#cbd5e1"/><rect x="168.7" y="208.6" width="19.5" height="1.4" fill="#2a78d6"/><rect x="168.7" y="204.4" width="19.5" height="4.2" fill="#cbd5e1"/><rect x="147.2" y="203.9" width="19.5" height="6.1" fill="#cbd5e1"/><rect x="125.6" y="203.5" width="19.5" height="6.5" fill="#2a78d6"/><rect x="125.6" y="196.9" width="19.5" height="6.5" fill="#cbd5e1"/><rect x="104.1" y="201.1" width="19.5" height="8.9" fill="#2a78d6"/><rect x="104.1" y="161.5" width="19.5" height="39.7" fill="#cbd5e1"/><rect x="82.5" y="205.8" width="19.5" height="4.2" fill="#2a78d6"/><rect x="82.5" y="161.9" width="19.5" height="43.9" fill="#cbd5e1"/><rect x="61.0" y="192.7" width="19.5" height="17.3" fill="#2a78d6"/><rect x="61.0" y="169.9" width="19.5" height="22.9" fill="#cbd5e1"/><line x1="616.9230769230769" x2="616.9230769230769" y1="70" y2="210" stroke="#9ca3af" stroke-dasharray="3 3"/><text x="619.9" y="80.0" font-size="9.5" fill="#1f2937" text-anchor="start" font-weight="600">1</text><line x1="638.4615384615385" x2="638.4615384615385" y1="70" y2="210" stroke="#9ca3af" stroke-dasharray="3 3"/><text x="641.5" y="91.0" font-size="9.5" fill="#1f2937" text-anchor="start" font-weight="600">2</text><line x1="663.0769230769231" x2="663.0769230769231" y1="70" y2="210" stroke="#9ca3af" stroke-dasharray="3 3"/><text x="666.1" y="80.0" font-size="9.5" fill="#1f2937" text-anchor="start" font-weight="600">3</text><line x1="718.4615384615385" x2="718.4615384615385" y1="70" y2="210" stroke="#9ca3af" stroke-dasharray="3 3"/><text x="721.5" y="91.0" font-size="9.5" fill="#1f2937" text-anchor="start" font-weight="600">4</text><line x1="816.9230769230769" x2="816.9230769230769" y1="70" y2="210" stroke="#9ca3af" stroke-dasharray="3 3"/><text x="819.9" y="80.0" font-size="9.5" fill="#1f2937" text-anchor="start" font-weight="600">5</text><line x1="826.1538461538462" x2="826.1538461538462" y1="70" y2="210" stroke="#9ca3af" stroke-dasharray="3 3"/><text x="829.2" y="91.0" font-size="9.5" fill="#1f2937" text-anchor="start" font-weight="600">6</text><line x1="869.2307692307693" x2="869.2307692307693" y1="70" y2="210" stroke="#9ca3af" stroke-dasharray="3 3"/><text x="872.2" y="80.0" font-size="9.5" fill="#1f2937" text-anchor="start" font-weight="600">7</text><line x1="60" x2="900" y1="340" y2="340" stroke="#e5e7eb"/><text x="54.0" y="344.0" font-size="10" fill="#6b7280" text-anchor="end">0</text><line x1="60" x2="900" y1="295" y2="295" stroke="#e5e7eb"/><text x="54.0" y="299.0" font-size="10" fill="#6b7280" text-anchor="end">30</text><line x1="60" x2="900" y1="250" y2="250" stroke="#e5e7eb"/><text x="54.0" y="254.0" font-size="10" fill="#6b7280" text-anchor="end">60</text><text x="60.0" y="246.0" font-size="11" fill="#1f2937" text-anchor="start" font-weight="600">simple-dispatcher: commits on main a week</text><rect x="857.9" y="338.5" width="19.5" height="1.5" fill="#2a78d6"/><rect x="857.9" y="316.0" width="19.5" height="22.5" fill="#eb6834"/><rect x="857.9" y="283.0" width="19.5" height="33.0" fill="#cbd5e1"/><rect x="836.4" y="338.5" width="19.5" height="1.5" fill="#2a78d6"/><rect x="836.4" y="328.0" width="19.5" height="10.5" fill="#eb6834"/><rect x="836.4" y="325.0" width="19.5" height="3.0" fill="#cbd5e1"/><rect x="814.8" y="337.0" width="19.5" height="3.0" fill="#2a78d6"/><rect x="814.8" y="329.5" width="19.5" height="7.5" fill="#eb6834"/><rect x="814.8" y="328.0" width="19.5" height="1.5" fill="#cbd5e1"/><rect x="793.3" y="337.0" width="19.5" height="3.0" fill="#2a78d6"/><rect x="793.3" y="305.5" width="19.5" height="31.5" fill="#eb6834"/><rect x="793.3" y="299.5" width="19.5" height="6.0" fill="#cbd5e1"/><rect x="771.8" y="332.5" width="19.5" height="7.5" fill="#eb6834"/><rect x="771.8" y="325.0" width="19.5" height="7.5" fill="#cbd5e1"/><rect x="750.2" y="323.5" width="19.5" height="16.5" fill="#eb6834"/><rect x="750.2" y="320.5" width="19.5" height="3.0" fill="#cbd5e1"/><rect x="728.7" y="338.5" width="19.5" height="1.5" fill="#2a78d6"/><rect x="728.7" y="331.0" width="19.5" height="7.5" fill="#eb6834"/><rect x="728.7" y="325.0" width="19.5" height="6.0" fill="#cbd5e1"/><rect x="707.2" y="332.5" width="19.5" height="7.5" fill="#2a78d6"/><rect x="707.2" y="316.0" width="19.5" height="16.5" fill="#eb6834"/><rect x="707.2" y="311.5" width="19.5" height="4.5" fill="#cbd5e1"/><rect x="685.6" y="323.5" width="19.5" height="16.5" fill="#2a78d6"/><rect x="685.6" y="308.5" width="19.5" height="15.0" fill="#eb6834"/><rect x="685.6" y="290.5" width="19.5" height="18.0" fill="#cbd5e1"/><rect x="664.1" y="271.0" width="19.5" height="69.0" fill="#2a78d6"/><rect x="664.1" y="265.0" width="19.5" height="6.0" fill="#eb6834"/><rect x="664.1" y="253.0" width="19.5" height="12.0" fill="#cbd5e1"/><rect x="642.5" y="326.5" width="19.5" height="13.5" fill="#2a78d6"/><rect x="642.5" y="307.0" width="19.5" height="19.5" fill="#eb6834"/><rect x="642.5" y="286.0" width="19.5" height="21.0" fill="#cbd5e1"/><rect x="621.0" y="310.0" width="19.5" height="30.0" fill="#2a78d6"/><rect x="621.0" y="293.5" width="19.5" height="16.5" fill="#eb6834"/><rect x="621.0" y="277.0" width="19.5" height="16.5" fill="#cbd5e1"/><rect x="599.5" y="280.0" width="19.5" height="60.0" fill="#2a78d6"/><rect x="599.5" y="278.5" width="19.5" height="1.5" fill="#eb6834"/><rect x="599.5" y="275.5" width="19.5" height="3.0" fill="#cbd5e1"/><rect x="577.9" y="301.0" width="19.5" height="39.0" fill="#2a78d6"/><rect x="577.9" y="296.5" width="19.5" height="4.5" fill="#cbd5e1"/><rect x="556.4" y="305.5" width="19.5" height="34.5" fill="#2a78d6"/><rect x="534.8" y="331.0" width="19.5" height="9.0" fill="#2a78d6"/><rect x="534.8" y="322.0" width="19.5" height="9.0" fill="#cbd5e1"/><rect x="513.3" y="316.0" width="19.5" height="24.0" fill="#2a78d6"/><rect x="211.8" y="335.5" width="19.5" height="4.5" fill="#2a78d6"/><line x1="616.9230769230769" x2="616.9230769230769" y1="250" y2="340" stroke="#9ca3af" stroke-dasharray="3 3"/><line x1="638.4615384615385" x2="638.4615384615385" y1="250" y2="340" stroke="#9ca3af" stroke-dasharray="3 3"/><line x1="663.0769230769231" x2="663.0769230769231" y1="250" y2="340" stroke="#9ca3af" stroke-dasharray="3 3"/><line x1="718.4615384615385" x2="718.4615384615385" y1="250" y2="340" stroke="#9ca3af" stroke-dasharray="3 3"/><line x1="816.9230769230769" x2="816.9230769230769" y1="250" y2="340" stroke="#9ca3af" stroke-dasharray="3 3"/><line x1="826.1538461538462" x2="826.1538461538462" y1="250" y2="340" stroke="#9ca3af" stroke-dasharray="3 3"/><line x1="869.2307692307693" x2="869.2307692307693" y1="250" y2="340" stroke="#9ca3af" stroke-dasharray="3 3"/><text x="60.0" y="356.0" font-size="10" fill="#6b7280" text-anchor="middle">5 Jan</text><text x="146.2" y="356.0" font-size="10" fill="#6b7280" text-anchor="middle">2 Feb</text><text x="232.3" y="356.0" font-size="10" fill="#6b7280" text-anchor="middle">2 Mar</text><text x="318.5" y="356.0" font-size="10" fill="#6b7280" text-anchor="middle">30 Mar</text><text x="404.6" y="356.0" font-size="10" fill="#6b7280" text-anchor="middle">27 Apr</text><text x="490.8" y="356.0" font-size="10" fill="#6b7280" text-anchor="middle">25 May</text><text x="576.9" y="356.0" font-size="10" fill="#6b7280" text-anchor="middle">22 Jun</text><text x="663.1" y="356.0" font-size="10" fill="#6b7280" text-anchor="middle">20 Jul</text><text x="749.2" y="356.0" font-size="10" fill="#6b7280" text-anchor="middle">17 Aug</text><text x="835.4" y="356.0" font-size="10" fill="#6b7280" text-anchor="middle">14 Sept</text><line x1="60" x2="900" y1="510" y2="510" stroke="#e5e7eb"/><text x="54.0" y="514.0" font-size="10" fill="#6b7280" text-anchor="end">0</text><line x1="60" x2="900" y1="455" y2="455" stroke="#e5e7eb"/><text x="54.0" y="459.0" font-size="10" fill="#6b7280" text-anchor="end">150</text><line x1="60" x2="900" y1="400" y2="400" stroke="#e5e7eb"/><text x="54.0" y="404.0" font-size="10" fill="#6b7280" text-anchor="end">300</text><text x="60.0" y="396.0" font-size="11" fill="#1f2937" text-anchor="start" font-weight="600">Fleet working hours a week by session tier (both repos; the oplog starts on 12 July)</text><rect x="62.0" y="506.0" width="60.6" height="4.0" fill="#2a78d6"/><rect x="62.0" y="503.4" width="60.6" height="2.5" fill="#eb6834"/><rect x="126.6" y="471.3" width="60.6" height="38.7" fill="#2a78d6"/><rect x="126.6" y="448.3" width="60.6" height="23.0" fill="#eb6834"/><rect x="126.6" y="448.3" width="60.6" height="0.1" fill="#1baf7a"/><rect x="191.2" y="462.3" width="60.6" height="47.7" fill="#2a78d6"/><rect x="191.2" y="454.5" width="60.6" height="7.8" fill="#eb6834"/><rect x="191.2" y="453.4" width="60.6" height="1.1" fill="#1baf7a"/><rect x="255.8" y="484.6" width="60.6" height="25.4" fill="#2a78d6"/><rect x="255.8" y="471.6" width="60.6" height="13.0" fill="#eb6834"/><rect x="255.8" y="468.9" width="60.6" height="2.7" fill="#1baf7a"/><rect x="320.5" y="479.0" width="60.6" height="31.0" fill="#2a78d6"/><rect x="320.5" y="463.3" width="60.6" height="15.7" fill="#eb6834"/><rect x="385.1" y="477.3" width="60.6" height="32.7" fill="#2a78d6"/><rect x="385.1" y="458.2" width="60.6" height="19.1" fill="#eb6834"/><rect x="449.7" y="492.6" width="60.6" height="17.4" fill="#2a78d6"/><rect x="449.7" y="476.8" width="60.6" height="15.8" fill="#eb6834"/><rect x="514.3" y="477.6" width="60.6" height="32.4" fill="#2a78d6"/><rect x="514.3" y="462.7" width="60.6" height="14.9" fill="#eb6834"/><rect x="578.9" y="455.0" width="60.6" height="55.0" fill="#2a78d6"/><rect x="578.9" y="430.6" width="60.6" height="24.4" fill="#eb6834"/><rect x="643.5" y="486.7" width="60.6" height="23.3" fill="#2a78d6"/><rect x="643.5" y="473.5" width="60.6" height="13.2" fill="#eb6834"/><rect x="643.5" y="465.7" width="60.6" height="7.8" fill="#1baf7a"/><rect x="708.2" y="499.6" width="60.6" height="10.4" fill="#2a78d6"/><rect x="708.2" y="492.2" width="60.6" height="7.4" fill="#eb6834"/><rect x="708.2" y="489.3" width="60.6" height="2.9" fill="#1baf7a"/><rect x="772.8" y="476.9" width="60.6" height="33.1" fill="#2a78d6"/><rect x="772.8" y="457.0" width="60.6" height="20.0" fill="#eb6834"/><rect x="772.8" y="445.2" width="60.6" height="11.8" fill="#1baf7a"/><rect x="837.4" y="494.0" width="60.6" height="16.0" fill="#2a78d6"/><rect x="837.4" y="492.7" width="60.6" height="1.3" fill="#eb6834"/><rect x="837.4" y="484.4" width="60.6" height="8.3" fill="#1baf7a"/><line x1="115.38461538461539" x2="115.38461538461539" y1="400" y2="510" stroke="#9ca3af" stroke-dasharray="3 3"/><line x1="189.23076923076923" x2="189.23076923076923" y1="400" y2="510" stroke="#9ca3af" stroke-dasharray="3 3"/><line x1="355.3846153846154" x2="355.3846153846154" y1="400" y2="510" stroke="#9ca3af" stroke-dasharray="3 3"/><line x1="650.7692307692308" x2="650.7692307692308" y1="400" y2="510" stroke="#9ca3af" stroke-dasharray="3 3"/><line x1="678.4615384615385" x2="678.4615384615385" y1="400" y2="510" stroke="#9ca3af" stroke-dasharray="3 3"/><line x1="807.6923076923076" x2="807.6923076923076" y1="400" y2="510" stroke="#9ca3af" stroke-dasharray="3 3"/><text x="60.0" y="526.0" font-size="10" fill="#6b7280" text-anchor="middle">6 Jul</text><text x="189.2" y="526.0" font-size="10" fill="#6b7280" text-anchor="middle">20 Jul</text><text x="318.5" y="526.0" font-size="10" fill="#6b7280" text-anchor="middle">3 Aug</text><text x="447.7" y="526.0" font-size="10" fill="#6b7280" text-anchor="middle">17 Aug</text><text x="576.9" y="526.0" font-size="10" fill="#6b7280" text-anchor="middle">31 Aug</text><text x="706.2" y="526.0" font-size="10" fill="#6b7280" text-anchor="middle">14 Sept</text><text x="835.4" y="526.0" font-size="10" fill="#6b7280" text-anchor="middle">28 Sept</text><rect x="60" y="576" width="12" height="12" fill="#2a78d6"/><text x="76.0" y="588.0" font-size="11" fill="#1f2937" text-anchor="start">frontier</text><rect x="180" y="576" width="12" height="12" fill="#eb6834"/><text x="196.0" y="588.0" font-size="11" fill="#1f2937" text-anchor="start">mid</text><rect x="300" y="576" width="12" height="12" fill="#1baf7a"/><text x="316.0" y="588.0" font-size="11" fill="#1f2937" text-anchor="start">cheap</text><rect x="420" y="576" width="12" height="12" fill="#cbd5e1"/><text x="436.0" y="588.0" font-size="11" fill="#1f2937" text-anchor="start">tier not stated</text><text x="60.0" y="544.0" font-size="9.5" fill="#6b7280" text-anchor="start">1 cheap harness added (5 Jul)   ·   2 sessions run at the chosen tier: implementation → mid (12 Jul)   ·   3 close-out → frontier (20 Jul)   ·   4 row-atomic routing (7 Aug)</text><text x="60.0" y="557.0" font-size="9.5" fill="#6b7280" text-anchor="start">5 cheap bake-off (8 Sept)   ·   6 review effort → medium (11 Sept)   ·   7 implementation → cheap (25 Sept)</text></svg>
