<svg xmlns="http://www.w3.org/2000/svg" viewBox="0 0 940 462" width="940" height="462" font-family="Inter, system-ui, sans-serif" role="img" aria-label="September's dispatches per correct change by steady-base candidate"><title>September's dispatches per correct change by steady-base candidate</title><rect width="940" height="462" fill="#ffffff"/><text x="20.0" y="22.0" font-size="14" fill="#1f2937" text-anchor="start" font-weight="600">September: 39.4 dispatches per correct change, split by the steady-base map's candidate rows</text><text x="20.0" y="40.0" font-size="11" fill="#6b7280" text-anchor="start">Code changes merged 1–28 Sep, both repos. Orange: supervision rows 1–3. Aqua: review and CI rounds. Grey: not in any row.</text><text x="322.0" y="74.0" font-size="10.5" fill="#1f2937" text-anchor="end">3 supervision that acted</text><path d="M330,64H674.4000000000001Q678.4000000000001,64 678.4000000000001,68V74Q678.4000000000001,78 674.4000000000001,78H330Z" fill="#eb6834"><title>3 supervision that acted: 13.4 per correct change, 34% of September's dispatches</title></path><text x="684.4" y="75.0" font-size="10.5" fill="#1f2937" text-anchor="start">13.4  (34%)</text><text x="322.0" y="96.0" font-size="10.5" fill="#1f2937" text-anchor="end">2 passage layer (Runner and legs)</text><path d="M330,86H482Q486,86 486,90V96Q486,100 482,100H330Z" fill="#eb6834"><title>2 passage layer (Runner and legs): 6 per correct change, 15% of September's dispatches</title></path><text x="492.0" y="97.0" font-size="10.5" fill="#1f2937" text-anchor="start">6  (15%)</text><text x="322.0" y="118.0" font-size="10.5" fill="#1f2937" text-anchor="end">1 quiet wakes</text><path d="M330,108H430Q434,108 434,112V118Q434,122 430,122H330Z" fill="#eb6834"><title>1 quiet wakes: 4 per correct change, 10% of September's dispatches</title></path><text x="440.0" y="119.0" font-size="10.5" fill="#1f2937" text-anchor="start">4  (10%)</text><text x="322.0" y="140.0" font-size="10.5" fill="#1f2937" text-anchor="end">unexplained: other stepper beats</text><path d="M330,130H398.8Q402.8,130 402.8,134V140Q402.8,144 398.8,144H330Z" fill="#94a3b8"><title>unexplained: other stepper beats: 2.8 per correct change, 7% of September's dispatches</title></path><text x="408.8" y="141.0" font-size="10.5" fill="#1f2937" text-anchor="start">2.8  (7%)</text><text x="322.0" y="162.0" font-size="10.5" fill="#1f2937" text-anchor="end">8 review rounds after the first (ceiling)</text><path d="M330,152H388.4Q392.4,152 392.4,156V162Q392.4,166 388.4,166H330Z" fill="#1baf7a"><title>8 review rounds after the first (ceiling): 2.4 per correct change, 6% of September's dispatches</title></path><text x="398.4" y="163.0" font-size="10.5" fill="#1f2937" text-anchor="start">2.4  (6%)</text><text x="322.0" y="184.0" font-size="10.5" fill="#1f2937" text-anchor="end">unexplained: first-round legs (plan)</text><path d="M330,174H362.4Q366.4,174 366.4,178V184Q366.4,188 362.4,188H330Z" fill="#94a3b8"><title>unexplained: first-round legs (plan): 1.4 per correct change, 4% of September's dispatches</title></path><text x="372.4" y="185.0" font-size="10.5" fill="#1f2937" text-anchor="start">1.4  (4%)</text><text x="322.0" y="206.0" font-size="10.5" fill="#1f2937" text-anchor="end">unexplained: first-round legs (review)</text><path d="M330,196H362.4Q366.4,196 366.4,200V206Q366.4,210 362.4,210H330Z" fill="#94a3b8"><title>unexplained: first-round legs (review): 1.4 per correct change, 4% of September's dispatches</title></path><text x="372.4" y="207.0" font-size="10.5" fill="#1f2937" text-anchor="start">1.4  (4%)</text><text x="322.0" y="228.0" font-size="10.5" fill="#1f2937" text-anchor="end">unexplained: first-round legs (close-out)</text><path d="M330,218H362.4Q366.4,218 366.4,222V228Q366.4,232 362.4,232H330Z" fill="#94a3b8"><title>unexplained: first-round legs (close-out): 1.4 per correct change, 4% of September's dispatches</title></path><text x="372.4" y="229.0" font-size="10.5" fill="#1f2937" text-anchor="start">1.4  (4%)</text><text x="322.0" y="250.0" font-size="10.5" fill="#1f2937" text-anchor="end">unexplained: fresh, kind unread</text><path d="M330,240H359.8Q363.8,240 363.8,244V250Q363.8,254 359.8,254H330Z" fill="#94a3b8"><title>unexplained: fresh, kind unread: 1.3 per correct change, 3% of September's dispatches</title></path><text x="369.8" y="251.0" font-size="10.5" fill="#1f2937" text-anchor="start">1.3  (3%)</text><text x="322.0" y="272.0" font-size="10.5" fill="#1f2937" text-anchor="end">unexplained: first-round legs (plan-review)</text><path d="M330,262H354.6Q358.6,262 358.6,266V272Q358.6,276 354.6,276H330Z" fill="#94a3b8"><title>unexplained: first-round legs (plan-review): 1.1 per correct change, 3% of September's dispatches</title></path><text x="364.6" y="273.0" font-size="10.5" fill="#1f2937" text-anchor="start">1.1  (3%)</text><text x="322.0" y="294.0" font-size="10.5" fill="#1f2937" text-anchor="end">unexplained: first-round legs (implementation)</text><path d="M330,284H354.6Q358.6,284 358.6,288V294Q358.6,298 354.6,298H330Z" fill="#94a3b8"><title>unexplained: first-round legs (implementation): 1.1 per correct change, 3% of September's dispatches</title></path><text x="364.6" y="295.0" font-size="10.5" fill="#1f2937" text-anchor="start">1.1  (3%)</text><text x="322.0" y="316.0" font-size="10.5" fill="#1f2937" text-anchor="end">test or CI beats</text><path d="M330,306H354.6Q358.6,306 358.6,310V316Q358.6,320 354.6,320H330Z" fill="#1baf7a"><title>test or CI beats: 1.1 per correct change, 3% of September's dispatches</title></path><text x="364.6" y="317.0" font-size="10.5" fill="#1f2937" text-anchor="start">1.1  (3%)</text><text x="322.0" y="338.0" font-size="10.5" fill="#1f2937" text-anchor="end">unexplained: follow-up, session kind unread</text><path d="M330,328H346.8Q350.8,328 350.8,332V338Q350.8,342 346.8,342H330Z" fill="#94a3b8"><title>unexplained: follow-up, session kind unread: 0.8 per correct change, 2% of September's dispatches</title></path><text x="356.8" y="339.0" font-size="10.5" fill="#1f2937" text-anchor="start">0.8  (2%)</text><text x="322.0" y="360.0" font-size="10.5" fill="#1f2937" text-anchor="end">unexplained: first-round legs (research)</text><path d="M330,350H341.6Q345.6,350 345.6,354V360Q345.6,364 341.6,364H330Z" fill="#94a3b8"><title>unexplained: first-round legs (research): 0.6 per correct change, 1% of September's dispatches</title></path><text x="351.6" y="361.0" font-size="10.5" fill="#1f2937" text-anchor="start">0.6  (1%)</text><text x="322.0" y="382.0" font-size="10.5" fill="#1f2937" text-anchor="end">unexplained: other follow-up</text><path d="M330,372H336.4Q340.4,372 340.4,376V382Q340.4,386 336.4,386H330Z" fill="#94a3b8"><title>unexplained: other follow-up: 0.4 per correct change, 1% of September's dispatches</title></path><text x="346.4" y="383.0" font-size="10.5" fill="#1f2937" text-anchor="start">0.4  (1%)</text><text x="322.0" y="404.0" font-size="10.5" fill="#1f2937" text-anchor="end">unexplained: other fresh</text><path d="M330,394H333.8Q337.8,394 337.8,398V404Q337.8,408 333.8,408H330Z" fill="#94a3b8"><title>unexplained: other fresh: 0.3 per correct change, 1% of September's dispatches</title></path><text x="343.8" y="405.0" font-size="10.5" fill="#1f2937" text-anchor="start">0.3  (1%)</text><text x="20.0" y="450.0" font-size="10" fill="#6b7280" text-anchor="start">Row numbers are docs/steady-base.md's map. Row 8 is a ceiling: every review round after the first and the re-implementation between them.</text></svg>
