<svg xmlns="http://www.w3.org/2000/svg" viewBox="0 0 940 380" width="940" height="380" font-family="Inter, system-ui, sans-serif" role="img" aria-label="Fresh sessions and follow-ups per correct change, and wakes per autopilot session, by period"><title>Fresh sessions and follow-ups per correct change, and wakes per autopilot session, by period</title><rect width="940" height="380" fill="#ffffff"/><text x="40.0" y="22.0" font-size="14" fill="#1f2937" text-anchor="start" font-weight="600">More beats, not more steps: fresh sessions per correct change level off in August; follow-ups keep climbing</text><text x="40.0" y="40.0" font-size="11" fill="#6b7280" text-anchor="start">Left: per correct change, by merge period (code changes, both repos). Right: follow-ups each autopilot session took.</text><line x1="60" x2="520" y1="310" y2="310" stroke="#e5e7eb"/><text x="54.0" y="314.0" font-size="10" fill="#6b7280" text-anchor="end">0</text><line x1="60" x2="520" y1="248.5" y2="248.5" stroke="#e5e7eb"/><text x="54.0" y="252.5" font-size="10" fill="#6b7280" text-anchor="end">10</text><line x1="60" x2="520" y1="187" y2="187" stroke="#e5e7eb"/><text x="54.0" y="191.0" font-size="10" fill="#6b7280" text-anchor="end">20</text><line x1="60" x2="520" y1="125.5" y2="125.5" stroke="#e5e7eb"/><text x="54.0" y="129.5" font-size="10" fill="#6b7280" text-anchor="end">30</text><line x1="60" x2="520" y1="64" y2="64" stroke="#e5e7eb"/><text x="54.0" y="68.0" font-size="10" fill="#6b7280" text-anchor="end">40</text><path d="M70,310V282.56735000000003Q70,278.56735000000003 74,278.56735000000003H100Q104,278.56735000000003 104,282.56735000000003V310Z" fill="#2a78d6"><title>29 Jun–12 Jul: 5.1 fresh sessions per correct change</title></path><path d="M106,310V298.4774Q106,294.4774 110,294.4774H136Q140,294.4774 140,298.4774V310Z" fill="#eb6834"><title>29 Jun–12 Jul: 2.5 follow-ups per correct change (2.1 warm, 0.4 cold)</title></path><text x="87.0" y="274.6" font-size="9.5" fill="#1f2937" text-anchor="middle">5.1</text><text x="123.0" y="290.5" font-size="9.5" fill="#1f2937" text-anchor="middle">2.5</text><text x="104.0" y="325.0" font-size="9.5" fill="#6b7280" text-anchor="middle">29 Jun–12 Jul</text><path d="M162,310V264.28954999999996Q162,260.28954999999996 166,260.28954999999996H192Q196,260.28954999999996 196,264.28954999999996V310Z" fill="#2a78d6"><title>13–26 Jul: 8.1 fresh sessions per correct change</title></path><path d="M198,310V240.85805Q198,236.85805 202,236.85805H228Q232,236.85805 232,240.85805V310Z" fill="#eb6834"><title>13–26 Jul: 11.9 follow-ups per correct change (9.1 warm, 2.8 cold)</title></path><text x="179.0" y="256.3" font-size="9.5" fill="#1f2937" text-anchor="middle">8.1</text><text x="215.0" y="232.9" font-size="9.5" fill="#1f2937" text-anchor="middle">11.9</text><text x="196.0" y="325.0" font-size="9.5" fill="#6b7280" text-anchor="middle">13–26 Jul</text><path d="M254,310V248.5148Q254,244.5148 258,244.5148H284Q288,244.5148 288,248.5148V310Z" fill="#2a78d6"><title>27 Jul–31 Aug: 10.6 fresh sessions per correct change</title></path><path d="M290,310V241.6145Q290,237.6145 294,237.6145H320Q324,237.6145 324,241.6145V310Z" fill="#eb6834"><title>27 Jul–31 Aug: 11.8 follow-ups per correct change (9.9 warm, 1.9 cold)</title></path><text x="271.0" y="240.5" font-size="9.5" fill="#1f2937" text-anchor="middle">10.6</text><text x="307.0" y="233.6" font-size="9.5" fill="#1f2937" text-anchor="middle">11.8</text><text x="288.0" y="325.0" font-size="9.5" fill="#6b7280" text-anchor="middle">27 Jul–31 Aug</text><path d="M346,310V243.3611Q346,239.3611 350,239.3611H376Q380,239.3611 380,243.3611V310Z" fill="#2a78d6"><title>1–13 Sep: 11.5 fresh sessions per correct change</title></path><path d="M382,310V184.43795Q382,180.43795 386,180.43795H412Q416,180.43795 416,184.43795V310Z" fill="#eb6834"><title>1–13 Sep: 21.1 follow-ups per correct change (17.2 warm, 3.8 cold)</title></path><text x="363.0" y="235.4" font-size="9.5" fill="#1f2937" text-anchor="middle">11.5</text><text x="399.0" y="176.4" font-size="9.5" fill="#1f2937" text-anchor="middle">21.1</text><text x="380.0" y="325.0" font-size="9.5" fill="#6b7280" text-anchor="middle">1–13 Sep</text><path d="M438,310V243.4595Q438,239.4595 442,239.4595H468Q472,239.4595 472,243.4595V310Z" fill="#2a78d6"><title>14–28 Sep: 11.5 fresh sessions per correct change</title></path><path d="M474,310V94.64795000000001Q474,90.64795000000001 478,90.64795000000001H504Q508,90.64795000000001 508,94.64795000000001V310Z" fill="#eb6834"><title>14–28 Sep: 35.7 follow-ups per correct change (31.7 warm, 4.0 cold)</title></path><text x="455.0" y="235.5" font-size="9.5" fill="#1f2937" text-anchor="middle">11.5</text><text x="491.0" y="86.6" font-size="9.5" fill="#1f2937" text-anchor="middle">35.7</text><text x="472.0" y="325.0" font-size="9.5" fill="#6b7280" text-anchor="middle">14–28 Sep</text><rect x="60" y="349" width="12" height="10" rx="2" fill="#2a78d6"/><text x="78.0" y="358.0" font-size="10.5" fill="#1f2937" text-anchor="start">fresh sessions (steps)</text><rect x="260" y="349" width="12" height="10" rx="2" fill="#eb6834"/><text x="278.0" y="358.0" font-size="10.5" fill="#1f2937" text-anchor="start">follow-ups (beats)</text><line x1="600" x2="920" y1="310" y2="310" stroke="#e5e7eb"/><text x="594.0" y="314.0" font-size="10" fill="#6b7280" text-anchor="end">0</text><line x1="600" x2="920" y1="228.00000000000003" y2="228.00000000000003" stroke="#e5e7eb"/><text x="594.0" y="232.0" font-size="10" fill="#6b7280" text-anchor="end">10</text><line x1="600" x2="920" y1="146" y2="146" stroke="#e5e7eb"/><text x="594.0" y="150.0" font-size="10" fill="#6b7280" text-anchor="end">20</text><line x1="600" x2="920" y1="64" y2="64" stroke="#e5e7eb"/><text x="594.0" y="68.0" font-size="10" fill="#6b7280" text-anchor="end">30</text><text x="632.0" y="306.0" font-size="9.5" fill="#6b7280" text-anchor="middle">n/a</text><text x="632.0" y="325.0" font-size="9.5" fill="#6b7280" text-anchor="middle">29 Jun–12 Jul</text><path d="M672,310V243.357Q672,239.357 676,239.357H716Q720,239.357 720,243.357V310Z" fill="#eda100"><title>13–26 Jul: 8.6 follow-ups per autopilot session</title></path><text x="696.0" y="235.4" font-size="9.5" fill="#1f2937" text-anchor="middle">8.6</text><text x="696.0" y="325.0" font-size="9.5" fill="#6b7280" text-anchor="middle">13–26 Jul</text><path d="M736,310V230.6798Q736,226.6798 740,226.6798H780Q784,226.6798 784,230.6798V310Z" fill="#eda100"><title>27 Jul–31 Aug: 10.2 follow-ups per autopilot session</title></path><text x="760.0" y="222.7" font-size="9.5" fill="#1f2937" text-anchor="middle">10.2</text><text x="760.0" y="325.0" font-size="9.5" fill="#6b7280" text-anchor="middle">27 Jul–31 Aug</text><path d="M800,310V216.338Q800,212.338 804,212.338H844Q848,212.338 848,216.338V310Z" fill="#eda100"><title>1–13 Sep: 11.9 follow-ups per autopilot session</title></path><text x="824.0" y="208.3" font-size="9.5" fill="#1f2937" text-anchor="middle">11.9</text><text x="824.0" y="325.0" font-size="9.5" fill="#6b7280" text-anchor="middle">1–13 Sep</text><path d="M864,310V127.05640000000002Q864,123.05640000000002 868,123.05640000000002H908Q912,123.05640000000002 912,127.05640000000002V310Z" fill="#eda100"><title>14–28 Sep: 22.8 follow-ups per autopilot session</title></path><text x="888.0" y="119.1" font-size="9.5" fill="#1f2937" text-anchor="middle">22.8</text><text x="888.0" y="325.0" font-size="9.5" fill="#6b7280" text-anchor="middle">14–28 Sep</text><text x="600.0" y="358.0" font-size="10.5" fill="#1f2937" text-anchor="start">follow-ups per autopilot session (kind read from 16 Jul)</text></svg>
