<svg xmlns="http://www.w3.org/2000/svg" viewBox="0 0 760 740" font-family="Inter, system-ui, sans-serif"><style data-figure-theme="1">@media (prefers-color-scheme: dark){rect[fill="#fff"]:not([fill-opacity]),rect[fill="#ffffff"]:not([fill-opacity]),rect[fill="white"]:not([fill-opacity]){fill:#16181d}[stroke="#fff"],[stroke="#ffffff"],[stroke="white"]{stroke:#16181d}circle[fill="#fff"]:not([fill-opacity]),circle[fill="#ffffff"]:not([fill-opacity]),circle[fill="white"]:not([fill-opacity]){fill:#16181d}path[fill="#fff"]:not([fill-opacity]),path[fill="#ffffff"]:not([fill-opacity]),path[fill="white"]:not([fill-opacity]){fill:#16181d}polygon[fill="#fff"]:not([fill-opacity]),polygon[fill="#ffffff"]:not([fill-opacity]),polygon[fill="white"]:not([fill-opacity]){fill:#16181d}ellipse[fill="#fff"]:not([fill-opacity]),ellipse[fill="#ffffff"]:not([fill-opacity]),ellipse[fill="white"]:not([fill-opacity]){fill:#16181d}text[fill="#1f2937"]:not([data-on-fill]),text[fill="#333"]:not([data-on-fill]),text[fill="#1f2328"]:not([data-on-fill]),text[fill="#555"]:not([data-on-fill]),text[fill="#475569"]:not([data-on-fill]){fill:#e6e6e6}[stroke="#1f2937"],[stroke="#333"],[stroke="#1f2328"],[stroke="#555"],[stroke="#475569"]{stroke:#e6e6e6}text[fill="#6b7280"]:not([data-on-fill]),text[fill="#666"]:not([data-on-fill]),text[fill="#667085"]:not([data-on-fill]),text[fill="#888"]:not([data-on-fill]),text[fill="#6e7781"]:not([data-on-fill]),text[fill="#999"]:not([data-on-fill]),text[fill="#aaa"]:not([data-on-fill]),text[fill="#bbb"]:not([data-on-fill]),text[fill="#9ca3af"]:not([data-on-fill]),text[fill="#94a3b8"]:not([data-on-fill]){fill:#9aa0a6}[stroke="#6b7280"],[stroke="#666"],[stroke="#667085"],[stroke="#888"],[stroke="#6e7781"],[stroke="#999"],[stroke="#aaa"],[stroke="#bbb"],[stroke="#9ca3af"],[stroke="#94a3b8"]{stroke:#9aa0a6}[stroke="#e5e7eb"],[stroke="#eee"],[stroke="#d1d5db"],[stroke="#f0f0f0"],[stroke="#cbd5e1"],[stroke="#d9d9d9"]{stroke:#2c313a}[fill="#f3f4f6"],[fill="#f9fafb"]{fill:#1f222a}rect[fill="#f0f0f0"],rect[fill="#d1d5db"],rect[fill="#e5e7eb"],rect[fill="#eee"]{fill:#2c313a}text:not([fill]):not([class]):not([data-on-fill]){fill:#e6e6e6}rect[fill="#1f2937"],circle[fill="#1f2937"],path[fill="#1f2937"]{fill:#4b5563}rect[fill="#3b1f5e"],circle[fill="#3b1f5e"],path[fill="#3b1f5e"]{fill:#553185}svg .t,svg .h{fill:#e6e6e6}svg .a,svg .s{fill:#9aa0a6}svg .f{fill:#1f222a;stroke:#2c313a}svg .g{stroke:#2c313a}rect[fill="#dbeafe"]{fill:#1d2d44}rect[fill="#93c5fd"]{fill:#2a5a9a}rect[fill="#fff7ed"]{fill:#2a2118}}</style><rect width="760" height="740" fill="#fff"/><text x="20" y="30" font-size="13" fill="#1f2937" font-weight="600">Each measure in the later weeks (13 Jul – 21 Sep) as a multiple of June (8 – 29 Jun)</text><line x1="300" x2="300" y1="54" y2="700" stroke="#e5e7eb"/><text x="300" y="714" font-size="10" fill="#6b7280" text-anchor="middle">×0.1</text><line x1="377.59830169104737" x2="377.59830169104737" y1="54" y2="700" stroke="#e5e7eb"/><text x="377.59830169104737" y="714" font-size="10" fill="#6b7280" text-anchor="middle">×0.25</text><line x1="436.2991508455236" x2="436.2991508455236" y1="54" y2="700" stroke="#e5e7eb"/><text x="436.2991508455236" y="714" font-size="10" fill="#6b7280" text-anchor="middle">×0.5</text><line x1="495" x2="495" y1="54" y2="700" stroke="#6b7280"/><text x="495" y="714" font-size="10" fill="#6b7280" text-anchor="middle">×1</text><line x1="553.7008491544764" x2="553.7008491544764" y1="54" y2="700" stroke="#e5e7eb"/><text x="553.7008491544764" y="714" font-size="10" fill="#6b7280" text-anchor="middle">×2</text><line x1="612.4016983089527" x2="612.4016983089527" y1="54" y2="700" stroke="#e5e7eb"/><text x="612.4016983089527" y="714" font-size="10" fill="#6b7280" text-anchor="middle">×4</text><line x1="690" x2="690" y1="54" y2="700" stroke="#e5e7eb"/><text x="690" y="714" font-size="10" fill="#6b7280" text-anchor="middle">×10</text><text x="20" y="64" font-size="11" fill="#1f2937" font-weight="600">Outcome</text><text x="32" y="80" font-size="11" fill="#1f2937">Correct, complete changes a week</text><line x1="495" x2="434.63755428559364" y1="76" y2="76" stroke="#1d4ed8" stroke-width="2"/><circle cx="434.63755428559364" cy="76" r="4" fill="#1d4ed8"/><text x="426.63755428559364" y="80" font-size="10" fill="#1d4ed8" text-anchor="end">×0.49</text><text x="32" y="97" font-size="11" fill="#1f2937">Merged tickets a week</text><line x1="495" x2="447.8621266069506" y1="93" y2="93" stroke="#1d4ed8" stroke-width="2"/><circle cx="447.8621266069506" cy="93" r="4" fill="#1d4ed8"/><text x="439.8621266069506" y="97" font-size="10" fill="#1d4ed8" text-anchor="end">×0.57</text><text x="32" y="114" font-size="11" fill="#1f2937">Correct, complete share of merged</text><line x1="495" x2="481.77542767864304" y1="110" y2="110" stroke="#1d4ed8" stroke-width="2"/><circle cx="481.77542767864304" cy="110" r="4" fill="#1d4ed8"/><text x="473.77542767864304" y="114" font-size="10" fill="#1d4ed8" text-anchor="end">×0.86</text><text x="20" y="137" font-size="11" fill="#1f2937" font-weight="600">Ticket size</text><text x="32" y="153" font-size="11" fill="#1f2937">Median product lines per correct change</text><line x1="495" x2="491.2904687238811" y1="149" y2="149" stroke="#1d4ed8" stroke-width="2"/><circle cx="491.2904687238811" cy="149" r="4" fill="#1d4ed8"/><text x="483.2904687238811" y="153" font-size="10" fill="#1d4ed8" text-anchor="end">×0.96</text><text x="32" y="170" font-size="11" fill="#1f2937">Correct changes of 1–49 product lines</text><line x1="495" x2="428.8096236818149" y1="166" y2="166" stroke="#1d4ed8" stroke-width="2"/><circle cx="428.8096236818149" cy="166" r="4" fill="#1d4ed8"/><text x="420.8096236818149" y="170" font-size="10" fill="#1d4ed8" text-anchor="end">×0.46</text><text x="32" y="187" font-size="11" fill="#1f2937">… of 50–299 lines</text><line x1="495" x2="434.3778015040874" y1="183" y2="183" stroke="#1d4ed8" stroke-width="2"/><circle cx="434.3778015040874" cy="183" r="4" fill="#1d4ed8"/><text x="426.3778015040874" y="187" font-size="10" fill="#1d4ed8" text-anchor="end">×0.49</text><text x="32" y="204" font-size="11" fill="#1f2937">… of 300+ lines</text><line x1="495" x2="424.5563400740705" y1="200" y2="200" stroke="#1d4ed8" stroke-width="2"/><circle cx="424.5563400740705" cy="200" r="4" fill="#1d4ed8"/><text x="416.5563400740705" y="204" font-size="10" fill="#1d4ed8" text-anchor="end">×0.44</text><text x="20" y="227" font-size="11" fill="#1f2937" font-weight="600">What landed</text><text x="32" y="243" font-size="11" fill="#1f2937">Net product lines a week</text><line x1="495" x2="461.33589612550566" y1="239" y2="239" stroke="#1d4ed8" stroke-width="2"/><circle cx="461.33589612550566" cy="239" r="4" fill="#1d4ed8"/><text x="453.33589612550566" y="243" font-size="10" fill="#1d4ed8" text-anchor="end">×0.67</text><text x="32" y="260" font-size="11" fill="#1f2937">Net test lines a week</text><line x1="495" x2="541.8465986736996" y1="256" y2="256" stroke="#b91c1c" stroke-width="2"/><circle cx="541.8465986736996" cy="256" r="4" fill="#b91c1c"/><text x="549.8465986736996" y="260" font-size="10" fill="#b91c1c" text-anchor="start">×1.74</text><text x="20" y="283" font-size="11" fill="#1f2937" font-weight="600">Work mix</text><text x="32" y="299" font-size="11" fill="#1f2937">Correct changes, mainly UI</text><line x1="495" x2="386.0061935979684" y1="295" y2="295" stroke="#1d4ed8" stroke-width="2"/><circle cx="386.0061935979684" cy="295" r="4" fill="#1d4ed8"/><text x="378.0061935979684" y="299" font-size="10" fill="#1d4ed8" text-anchor="end">×0.28</text><text x="32" y="316" font-size="11" fill="#1f2937">… mainly server</text><line x1="495" x2="448.5708121146939" y1="312" y2="312" stroke="#1d4ed8" stroke-width="2"/><circle cx="448.5708121146939" cy="312" r="4" fill="#1d4ed8"/><text x="440.5708121146939" y="316" font-size="10" fill="#1d4ed8" text-anchor="end">×0.58</text><text x="32" y="333" font-size="11" fill="#1f2937">… mainly runner</text><line x1="495" x2="469.19909477696666" y1="329" y2="329" stroke="#1d4ed8" stroke-width="2"/><circle cx="469.19909477696666" cy="329" r="4" fill="#1d4ed8"/><text x="461.19909477696666" y="333" font-size="10" fill="#1d4ed8" text-anchor="end">×0.74</text><text x="32" y="350" font-size="11" fill="#1f2937">… docs or tests only</text><line x1="495" x2="460.8410586667155" y1="346" y2="346" stroke="#1d4ed8" stroke-width="2"/><circle cx="460.8410586667155" cy="346" r="4" fill="#1d4ed8"/><text x="452.8410586667155" y="350" font-size="10" fill="#1d4ed8" text-anchor="end">×0.67</text><text x="20" y="373" font-size="11" fill="#1f2937" font-weight="600">Measurement</text><text x="32" y="389" font-size="11" fill="#1f2937">Commits on main that name a ticket (share)</text><line x1="495" x2="497.7554919526161" y1="385" y2="385" stroke="#b91c1c" stroke-width="2"/><circle cx="497.7554919526161" cy="385" r="4" fill="#b91c1c"/><text x="505.7554919526161" y="389" font-size="10" fill="#b91c1c" text-anchor="start">×1.03</text><text x="32" y="406" font-size="11" fill="#1f2937">Product lines in ticket-naming commits (share)</text><line x1="495" x2="500.7208275155243" y1="402" y2="402" stroke="#b91c1c" stroke-width="2"/><circle cx="500.7208275155243" cy="402" r="4" fill="#b91c1c"/><text x="508.7208275155243" y="406" font-size="10" fill="#b91c1c" text-anchor="start">×1.07</text><text x="20" y="429" font-size="11" fill="#1f2937" font-weight="600">Correctness</text><text x="32" y="445" font-size="11" fill="#1f2937">Merged tickets with a named escape</text><line x1="495" x2="653.1450315897221" y1="441" y2="441" stroke="#b91c1c" stroke-width="2"/><circle cx="653.1450315897221" cy="441" r="4" fill="#b91c1c"/><text x="661.1450315897221" y="445" font-size="10" fill="#b91c1c" text-anchor="start">×6.47</text><text x="32" y="462" font-size="11" fill="#1f2937">Merged tickets that filed a follow-up</text><line x1="495" x2="547.5597196896952" y1="458" y2="458" stroke="#b91c1c" stroke-width="2"/><circle cx="547.5597196896952" cy="458" r="4" fill="#b91c1c"/><text x="555.5597196896952" y="462" font-size="10" fill="#b91c1c" text-anchor="start">×1.86</text><text x="32" y="479" font-size="11" fill="#1f2937">Merged tickets with a named fix</text><line x1="495" x2="504.78597241974563" y1="475" y2="475" stroke="#b91c1c" stroke-width="2"/><circle cx="504.78597241974563" cy="475" r="4" fill="#b91c1c"/><text x="512.7859724197456" y="479" font-size="10" fill="#b91c1c" text-anchor="start">×1.12</text><text x="20" y="502" font-size="11" fill="#1f2937" font-weight="600">Capacity</text><text x="32" y="518" font-size="11" fill="#1f2937">Correct changes written at frontier tier</text><line x1="495" x2="331.35063366342547" y1="514" y2="514" stroke="#1d4ed8" stroke-width="2"/><circle cx="331.35063366342547" cy="514" r="4" fill="#1d4ed8"/><text x="323.35063366342547" y="518" font-size="10" fill="#1d4ed8" text-anchor="end">×0.14</text><text x="32" y="535" font-size="11" fill="#1f2937">Days a week with a merge</text><line x1="495" x2="483.21889511802715" y1="531" y2="531" stroke="#1d4ed8" stroke-width="2"/><circle cx="483.21889511802715" cy="531" r="4" fill="#1d4ed8"/><text x="475.21889511802715" y="535" font-size="10" fill="#1d4ed8" text-anchor="end">×0.87</text><text x="20" y="558" font-size="11" fill="#1f2937" font-weight="600">Process weight</text><text x="32" y="574" font-size="11" fill="#1f2937">Median test lines per correct change</text><line x1="495" x2="573.7505293150988" y1="570" y2="570" stroke="#b91c1c" stroke-width="2"/><circle cx="573.7505293150988" cy="570" r="4" fill="#b91c1c"/><text x="581.7505293150988" y="574" font-size="10" fill="#b91c1c" text-anchor="start">×2.53</text><text x="32" y="591" font-size="11" fill="#1f2937">PR open to merge, median (Harbour)</text><line x1="495" x2="598.3611793319549" y1="587" y2="587" stroke="#b91c1c" stroke-width="2"/><circle cx="598.3611793319549" cy="587" r="4" fill="#b91c1c"/><text x="606.3611793319549" y="591" font-size="10" fill="#b91c1c" text-anchor="start">×3.39</text><text x="32" y="608" font-size="11" fill="#1f2937">Reading load at the end of the block</text><line x1="495" x2="569.4662570421128" y1="604" y2="604" stroke="#b91c1c" stroke-width="2"/><circle cx="569.4662570421128" cy="604" r="4" fill="#b91c1c"/><text x="577.4662570421128" y="608" font-size="10" fill="#b91c1c" text-anchor="start">×2.41</text><text x="20" y="631" font-size="11" fill="#1f2937" font-weight="600">Organisational</text><text x="32" y="647" font-size="11" fill="#1f2937">Tickets filed a week</text><line x1="495" x2="485.50507483955374" y1="643" y2="643" stroke="#1d4ed8" stroke-width="2"/><circle cx="485.50507483955374" cy="643" r="4" fill="#1d4ed8"/><text x="477.50507483955374" y="647" font-size="10" fill="#1d4ed8" text-anchor="end">×0.89</text><text x="32" y="664" font-size="11" fill="#1f2937">Correct changes with no kind label</text><line x1="495" x2="417.9028868315339" y1="660" y2="660" stroke="#1d4ed8" stroke-width="2"/><circle cx="417.9028868315339" cy="660" r="4" fill="#1d4ed8"/><text x="409.9028868315339" y="664" font-size="10" fill="#1d4ed8" text-anchor="end">×0.40</text><text x="32" y="681" font-size="11" fill="#1f2937">Correct review-residue changes</text><line x1="495" x2="525.9985939817566" y1="677" y2="677" stroke="#b91c1c" stroke-width="2"/><circle cx="525.9985939817566" cy="677" r="4" fill="#b91c1c"/><text x="533.9985939817566" y="681" font-size="10" fill="#b91c1c" text-anchor="start">×1.44</text><text x="300" y="730" font-size="10" fill="#6b7280">Log scale. Blue fell, red rose. Both repos together.</text></svg>
